<?xml version="1.0" encoding="utf-8"?>
<!DOCTYPE svg PUBLIC "-//W3C//DTD SVG 1.1//EN" "http://www.w3.org/Graphics/SVG/1.1/DTD/svg11.dtd">
<svg version="1.1" id="Layer_1" xmlns="http://www.w3.org/2000/svg" xmlns:xlink="http://www.w3.org/1999/xlink" x="0px" y="0px"
	 viewBox="0 211.6 1000 576.8" enable-background="new 0 211.6 1000 576.8" xml:space="preserve">
<path fill="#000000" d="M958,211.6H42c-21.6,0-39,17.5-39,39v498.7c0,21.6,17.5,39,39,39h325.4c10.8,0,20.4-7.2,23.4-17.6
	c36.5-125.4,44-196.9,112.8-196.9c68.7,0,78.9,81.7,111.2,197.4c2.8,10.1,12,17,22.5,17H958c21.6,0,39-17.5,39-39V250.7
	C997,229.1,979.6,211.6,958,211.6z M277.5,603.7c-57.3,0-103.7-46.4-103.7-103.7s46.4-103.7,103.7-103.7S381.1,442.7,381.1,500
	S334.7,603.7,277.5,603.7z M722.5,603.7c-57.3,0-103.7-46.4-103.7-103.7s46.4-103.7,103.7-103.7c57.3,0,103.7,46.4,103.7,103.7
	S779.8,603.7,722.5,603.7z"/>
</svg>
